<svg width="130" height="144" viewBox="0 0 130 144" xmlns="http://www.w3.org/2000/svg">
<path d="M39.1621 143.367C21.584 138.436 12.7949 127.083 12.7949 109.31V94.8076C12.7949 84.9443 8.83984 80.0127 0.929688 80.0127V63.3867C8.83984 63.3867 12.7949 58.4307 12.7949 48.5186V33.1377C12.9414 24.3486 15.2119 17.2441 19.6064 11.8242C24.0498 6.4043 30.5684 2.47363 39.1621 0.0322266L43.7764 12.9229C37.624 15.2666 34.4258 21.834 34.1816 32.625V48.5186C34.1816 59.4561 29.665 67.1709 20.6318 71.6631C29.665 76.1553 34.1816 83.8945 34.1816 94.8809V110.701C34.4258 121.492 37.624 128.06 43.7764 130.403L39.1621 143.367ZM87.1357 130.403C93.2881 128.06 96.4863 121.492 96.7305 110.701V94.8076C96.7305 83.8213 101.271 76.1064 110.354 71.6631C101.271 67.2197 96.7305 59.5049 96.7305 48.5186V32.625C96.4863 21.834 93.2881 15.2666 87.1357 12.9229L91.75 0.0322266C100.49 2.47363 107.058 6.47754 111.452 12.0439C115.847 17.5615 118.068 24.8125 118.117 33.7969V48.5186C118.117 58.4307 122.072 63.3867 129.982 63.3867V80.0127C122.072 80.0127 118.117 84.9199 118.117 94.7344V110.335C117.775 127.522 108.986 138.533 91.75 143.367L87.1357 130.403Z"/>
</svg>
