<svg width="146" height="110" viewBox="0 0 146 110"  xmlns="http://www.w3.org/2000/svg">
<path fill-rule="evenodd" clip-rule="evenodd" d="M66.2109 106.641H84.668V0H66.2109V44.3848H18.5303V0H0V106.641H18.5303V59.2529H66.2109V106.641ZM123.719 75.0547H117.508V84.8594H123.914C126.44 84.8594 128.419 85.4583 129.852 86.6562C131.284 87.8542 132 89.8854 132 92.75C132 94.7552 131.31 96.4089 129.93 97.7109C128.549 98.987 126.701 99.625 124.383 99.625C122.326 99.625 120.594 98.987 119.188 97.7109C117.781 96.4349 117.078 94.9245 117.078 93.1797H103.836C103.836 96.3828 104.656 99.2474 106.297 101.773C107.938 104.273 110.346 106.24 113.523 107.672C116.727 109.078 120.19 109.781 123.914 109.781C130.268 109.781 135.398 108.258 139.305 105.211C143.211 102.164 145.164 98.1016 145.164 93.0234C145.164 89.7422 144.305 86.9948 142.586 84.7812C140.867 82.5417 138.497 80.875 135.477 79.7812C138.341 78.4271 140.516 76.6693 142 74.5078C143.51 72.3203 144.266 70.0026 144.266 67.5547C144.266 62.5026 142.456 58.5312 138.836 55.6406C135.216 52.75 130.242 51.3047 123.914 51.3047C120.372 51.3047 117.117 51.9688 114.148 53.2969C111.206 54.599 108.901 56.4219 107.234 58.7656C105.568 61.1094 104.734 63.7786 104.734 66.7734H117.898C117.898 65.263 118.536 64 119.812 62.9844C121.115 61.9688 122.638 61.4609 124.383 61.4609C126.518 61.4609 128.172 62.0599 129.344 63.2578C130.516 64.4297 131.102 65.9531 131.102 67.8281C131.102 72.6458 128.641 75.0547 123.719 75.0547Z"/>
</svg>
