<svg width="120" height="56" viewBox="0 0 120 56" fill="none" xmlns="http://www.w3.org/2000/svg">
<path d="M0.673462 1.90894C0.673462 1.35665 1.12118 0.908936 1.67346 0.908936H118.347C118.899 0.908936 119.347 1.35665 119.347 1.90894V54.0407C119.347 54.593 118.899 55.0407 118.347 55.0407H1.67346C1.12118 55.0407 0.673462 54.593 0.673462 54.0407V1.90894Z" fill="white"/>
<g style="mix-blend-mode:luminosity">
<path d="M61.3529 19.1398V44.4748H54.5129V19.1398H46.0079V13.0648H69.8579V19.1398H61.3529Z" fill="black"/>
<path d="M73.1242 13.0648H84.9592C87.0292 13.0648 88.9192 13.3948 90.6292 14.0548C92.3392 14.7148 93.7942 15.7048 94.9942 17.0248C96.1942 18.3148 97.1242 19.9498 97.7842 21.9298C98.4442 23.8798 98.7742 26.1598 98.7742 28.7698C98.7742 31.3798 98.4442 33.6748 97.7842 35.6548C97.1242 37.6048 96.1942 39.2398 94.9942 40.5598C93.7942 41.8498 92.3392 42.8248 90.6292 43.4848C88.9192 44.1448 87.0292 44.4748 84.9592 44.4748H73.1242V13.0648ZM84.9592 38.3998C86.9992 38.3998 88.6042 37.8298 89.7742 36.6898C90.9442 35.5498 91.5292 33.7198 91.5292 31.1998V26.3398C91.5292 23.8198 90.9442 21.9898 89.7742 20.8498C88.6042 19.7098 86.9992 19.1398 84.9592 19.1398H79.9642V38.3998H84.9592Z" fill="black"/>
<path d="M106.058 18.3298C104.708 18.3298 103.718 18.0298 103.088 17.4298C102.488 16.7998 102.188 16.0048 102.188 15.0448V14.0548C102.188 13.0948 102.488 12.3148 103.088 11.7148C103.718 11.0848 104.708 10.7698 106.058 10.7698C107.408 10.7698 108.383 11.0848 108.983 11.7148C109.613 12.3148 109.928 13.0948 109.928 14.0548V15.0448C109.928 16.0048 109.613 16.7998 108.983 17.4298C108.383 18.0298 107.408 18.3298 106.058 18.3298ZM102.728 20.8498H109.388V44.4748H102.728V20.8498Z" fill="black"/>
</g>
<path d="M43.2275 27.9747C43.2275 37.3636 35.6163 44.9747 26.2275 44.9747C16.8386 44.9747 9.22748 37.3636 9.22748 27.9747C9.22748 18.5859 16.8386 10.9747 26.2275 10.9747C35.6163 10.9747 43.2275 18.5859 43.2275 27.9747Z" fill="#2D2BC6"/>
<g filter="url(#filter0_d)">
<path d="M35.2275 27.9747C35.2275 32.9453 31.198 36.9747 26.2275 36.9747C21.2569 36.9747 17.2275 32.9453 17.2275 27.9747C17.2275 23.0042 21.2569 18.9747 26.2275 18.9747C31.198 18.9747 35.2275 23.0042 35.2275 27.9747Z" fill="#3FF585"/>
</g>
<g filter="url(#filter1_d)">
<path d="M30.6532 27.9747C30.6532 30.419 28.6717 32.4005 26.2275 32.4005C23.7832 32.4005 21.8017 30.419 21.8017 27.9747C21.8017 25.5304 23.7832 23.549 26.2275 23.549C28.6717 23.549 30.6532 25.5304 30.6532 27.9747Z" fill="white"/>
</g>
<defs>
<filter id="filter0_d" x="13.2275" y="14.9747" width="26" height="26" filterUnits="userSpaceOnUse" color-interpolation-filters="sRGB">
<feFlood flood-opacity="0" result="BackgroundImageFix"/>
<feColorMatrix in="SourceAlpha" type="matrix" values="0 0 0 0 0 0 0 0 0 0 0 0 0 0 0 0 0 0 127 0"/>
<feOffset/>
<feGaussianBlur stdDeviation="2"/>
<feColorMatrix type="matrix" values="0 0 0 0 0 0 0 0 0 0 0 0 0 0 0 0 0 0 0.34 0"/>
<feBlend mode="color-burn" in2="BackgroundImageFix" result="effect1_dropShadow"/>
<feBlend mode="normal" in="SourceGraphic" in2="effect1_dropShadow" result="shape"/>
</filter>
<filter id="filter1_d" x="17.8017" y="19.549" width="16.8515" height="16.8515" filterUnits="userSpaceOnUse" color-interpolation-filters="sRGB">
<feFlood flood-opacity="0" result="BackgroundImageFix"/>
<feColorMatrix in="SourceAlpha" type="matrix" values="0 0 0 0 0 0 0 0 0 0 0 0 0 0 0 0 0 0 127 0"/>
<feOffset/>
<feGaussianBlur stdDeviation="2"/>
<feColorMatrix type="matrix" values="0 0 0 0 0 0 0 0 0 0 0 0 0 0 0 0 0 0 0.34 0"/>
<feBlend mode="normal" in2="BackgroundImageFix" result="effect1_dropShadow"/>
<feBlend mode="normal" in="SourceGraphic" in2="effect1_dropShadow" result="shape"/>
</filter>
</defs>
</svg>
