<?xml version="1.0" standalone="no"?>
<!DOCTYPE svg PUBLIC "-//W3C//DTD SVG 20010904//EN"
 "http://www.w3.org/TR/2001/REC-SVG-20010904/DTD/svg10.dtd">
<svg version="1.0" xmlns="http://www.w3.org/2000/svg"
 width="516.000000pt" height="516.000000pt" viewBox="0 0 516.000000 516.000000"
 preserveAspectRatio="xMidYMid meet">
<metadata>
Created by potrace 1.11, written by Peter Selinger 2001-2013
</metadata>
<g transform="translate(0.000000,516.000000) scale(0.100000,-0.100000)"
fill="#000000" stroke="none">
<path d="M4379 3299 c-20 -6 -49 -24 -65 -40 -23 -24 -29 -40 -32 -92 -8 -120
42 -172 163 -171 108 0 155 45 155 149 0 68 -20 115 -58 137 -36 22 -117 30
-163 17z"/>
<path d="M1110 3290 c-147 -23 -268 -87 -380 -199 -157 -158 -227 -353 -201
-561 21 -167 83 -291 203 -412 61 -61 96 -86 170 -122 119 -59 189 -76 309
-76 275 0 507 146 625 395 48 100 64 174 64 291 0 196 -59 342 -195 480 -90
91 -174 143 -292 181 -85 26 -217 37 -303 23z m195 -533 c47 -26 85 -92 85
-149 0 -160 -193 -238 -302 -122 -84 91 -51 244 62 287 37 14 116 6 155 -16z"/>
<path d="M2010 3085 l0 -125 170 0 170 0 0 -510 0 -510 145 0 145 0 0 510 0
510 170 0 170 0 0 125 0 125 -485 0 -485 0 0 -125z"/>
<path d="M3110 2575 l0 -635 285 0 c314 0 354 5 463 56 131 63 224 184 269
354 25 93 25 359 -1 450 -44 163 -132 283 -252 347 -105 56 -156 63 -476 63
l-288 0 0 -635z m613 356 c61 -30 102 -86 117 -158 8 -34 10 -122 8 -232 -3
-168 -5 -178 -31 -228 -50 -96 -117 -123 -304 -123 l-123 0 0 386 0 386 143
-4 c125 -3 148 -6 190 -27z"/>
<path d="M4300 2420 l0 -480 140 0 140 0 0 480 0 480 -140 0 -140 0 0 -480z"/>
</g>
</svg>
